<?xml version="1.0" standalone="no"?>
<!DOCTYPE svg PUBLIC "-//W3C//DTD SVG 20010904//EN"
 "http://www.w3.org/TR/2001/REC-SVG-20010904/DTD/svg10.dtd">
<svg version="1.0" xmlns="http://www.w3.org/2000/svg"
 width="205.000000pt" height="205.000000pt" viewBox="0 0 205.000000 205.000000"
 preserveAspectRatio="xMidYMid meet">
<metadata>
Created by potrace 1.14, written by Peter Selinger 2001-2017
</metadata>
<g transform="translate(0.000000,205.000000) scale(0.100000,-0.100000)"
fill="#000000" stroke="none">
<path d="M201 1822 c-1 -7 -5 -11 -10 -7 -6 3 -8 -4 -6 -16 4 -17 2 -19 -11
-8 -8 6 -17 9 -21 5 -3 -3 -2 -6 4 -6 6 0 14 -7 17 -16 3 -8 2 -12 -4 -9 -10
6 -31 -35 -24 -47 3 -4 -5 -12 -16 -18 -12 -7 -18 -16 -13 -23 12 -19 12 -38
0 -30 -7 4 -8 0 -4 -11 4 -10 3 -15 -3 -11 -6 3 -10 1 -10 -5 0 -6 -5 -8 -12
-4 -7 4 -8 3 -4 -5 4 -6 13 -8 19 -4 8 5 8 2 -1 -9 -6 -8 -13 -34 -14 -57 -1
-27 -5 -40 -13 -37 -13 5 -14 -82 0 -103 5 -10 4 -12 -4 -7 -8 5 -11 -2 -9
-24 1 -18 7 -29 13 -26 7 2 12 -2 12 -10 0 -7 -4 -11 -8 -9 -3 3 -9 -4 -12
-16 -4 -15 -2 -18 7 -10 8 7 12 5 13 -10 1 -11 -2 -17 -8 -14 -5 4 -9 1 -9 -4
0 -6 5 -11 11 -11 5 0 7 -4 4 -10 -3 -5 -1 -10 4 -10 6 0 11 -5 11 -11 0 -5
-4 -7 -10 -4 -6 3 -7 -1 -4 -9 3 -9 11 -13 18 -9 6 4 5 -1 -3 -10 -9 -11 -10
-17 -2 -17 6 0 11 -7 11 -15 0 -8 6 -15 13 -15 8 0 7 -3 -3 -10 -12 -7 -11
-12 5 -31 13 -15 15 -20 5 -15 -9 5 -8 2 2 -7 10 -8 14 -18 10 -22 -4 -5 2 -5
12 -1 17 6 17 5 5 -11 -9 -11 -10 -14 -1 -9 11 7 17 -5 13 -27 -1 -5 3 -6 9
-2 5 3 10 0 10 -8 0 -8 18 -31 40 -51 23 -20 38 -41 34 -47 -4 -8 0 -7 14 0
18 10 24 8 38 -14 9 -14 27 -28 40 -31 13 -3 21 -10 18 -16 -3 -5 0 -9 7 -7
36 4 60 -2 53 -13 -4 -7 -3 -10 1 -5 5 4 19 0 31 -8 13 -8 25 -11 29 -6 4 7
40 8 40 1 0 -1 10 -3 22 -4 12 -1 19 2 16 7 -3 5 4 6 17 2 17 -5 21 -4 15 5
-5 9 -4 11 4 6 16 -10 52 3 45 17 -3 7 1 4 9 -5 8 -10 18 -14 22 -10 5 4 5 2
1 -5 -4 -7 -14 -9 -24 -6 -15 6 -16 5 -2 -12 11 -14 12 -17 1 -11 -9 6 -12 5
-9 -5 3 -8 11 -13 17 -11 7 1 10 -2 6 -7 -3 -6 -12 -8 -19 -5 -8 3 -17 0 -22
-7 -4 -8 -3 -10 4 -5 7 4 12 2 12 -3 0 -6 -5 -11 -11 -11 -6 0 -9 -13 -6 -34
4 -33 -3 -59 -17 -57 -15 2 -16 0 -5 -21 12 -22 11 -22 -6 -8 -10 8 -16 10
-12 4 8 -14 -14 -44 -35 -48 -10 -1 -27 -11 -39 -22 -12 -10 -19 -13 -15 -6 4
6 2 12 -3 12 -6 0 -20 9 -31 20 -15 15 -20 17 -20 5 0 -11 -5 -12 -26 -5 -32
13 -43 13 -24 0 10 -7 11 -10 2 -10 -7 0 -15 6 -18 14 -3 9 -13 12 -22 9 -14
-5 -14 -3 1 8 17 14 17 15 -3 16 -12 1 -30 9 -39 17 -10 9 -21 13 -26 9 -4 -5
-5 -2 -1 5 5 7 1 12 -11 13 -16 0 -16 1 2 9 17 7 14 9 -13 9 -18 1 -31 5 -27
10 3 5 0 13 -7 17 -7 4 -10 4 -6 -1 4 -4 2 -15 -5 -23 -9 -13 -9 -14 1 -8 6 4
12 2 12 -3 0 -6 -4 -11 -10 -11 -5 0 -10 -4 -10 -10 0 -5 3 -9 7 -7 9 2 13 -6
13 -25 0 -7 -9 1 -20 17 -11 17 -20 25 -20 20 0 -6 -9 -11 -20 -12 -13 -1 -18
2 -14 9 4 7 2 8 -4 4 -19 -12 -2 -33 24 -30 13 1 22 -2 18 -7 -3 -5 -10 -7
-15 -4 -5 4 -9 1 -9 -4 0 -10 22 -16 44 -12 5 1 4 -4 -2 -11 -7 -10 -8 -18 0
-28 8 -12 9 -12 4 3 -3 9 -1 17 4 17 5 0 12 -10 15 -21 6 -17 9 -19 16 -8 6
10 9 8 9 -8 0 -21 9 -28 25 -20 3 1 15 -12 26 -30 18 -28 23 -31 40 -20 10 6
19 14 19 18 0 3 7 6 15 6 8 0 13 -3 10 -5 -3 -3 3 -14 12 -25 10 -11 12 -17 6
-13 -7 4 -13 4 -13 -1 0 -13 58 -35 71 -27 8 4 9 3 5 -4 -9 -15 22 -29 62 -27
17 0 32 -3 32 -7 0 -4 8 -4 18 -1 14 6 15 4 5 -8 -10 -13 -10 -16 2 -16 8 0
15 5 15 11 0 7 3 7 8 1 4 -5 16 -17 26 -25 18 -14 19 -13 13 4 -6 15 -5 17 7
7 23 -19 25 -48 5 -70 -11 -11 -19 -25 -19 -30 0 -6 -7 -8 -15 -5 -8 4 -15 1
-15 -5 0 -6 5 -11 11 -11 5 0 8 -4 5 -8 -3 -5 1 -9 9 -9 8 0 12 3 11 6 -2 3 6
6 19 6 13 0 23 -2 23 -5 -1 -18 4 -29 16 -33 10 -4 13 -1 9 9 -3 7 0 14 6 14
6 0 11 -6 11 -12 0 -10 3 -9 9 1 7 10 9 11 13 1 3 -9 29 -13 86 -14 66 -1 81
-4 77 -15 -4 -11 -3 -12 10 -1 8 7 12 16 9 21 -3 5 7 4 21 -1 18 -7 24 -7 20
0 -4 6 -1 17 5 25 14 17 35 21 25 5 -4 -7 3 -7 20 0 17 7 24 7 20 0 -3 -6 -1
-10 5 -10 7 0 10 -6 7 -13 -3 -8 3 -14 14 -14 11 -1 17 2 14 7 -3 6 1 7 9 4 8
-3 17 -13 19 -22 4 -14 5 -13 6 2 1 20 1 20 16 0 14 -18 14 -18 10 3 -3 16 0
20 11 16 7 -3 11 -10 7 -17 -4 -6 1 -5 11 3 18 15 56 23 56 11 0 -4 7 -7 15
-7 8 0 12 4 9 9 -3 4 1 9 8 10 36 4 43 3 49 -4 7 -10 41 1 34 11 -5 10 26 7
43 -2 8 -6 10 -3 5 9 -4 12 -3 15 5 10 7 -4 12 -2 12 4 0 6 5 8 13 4 8 -6 8
-3 -1 9 -8 9 -22 19 -33 22 -10 4 -19 13 -19 21 0 8 -4 13 -9 10 -11 -7 -9 13
2 32 5 6 5 17 1 24 -5 7 -3 8 7 3 19 -12 49 -14 55 -3 3 4 10 6 15 3 5 -3 6 0
3 8 -4 11 2 14 21 11 19 -2 25 1 21 11 -4 11 0 12 19 5 20 -8 25 -6 25 6 0 8
5 12 10 9 6 -4 7 -11 4 -17 -5 -7 -2 -8 5 -4 7 5 10 15 7 25 -5 12 -2 11 9 -3
14 -18 15 -18 15 -2 0 9 5 14 10 11 6 -3 10 0 10 7 0 9 3 9 10 -2 8 -13 11
-13 22 -1 10 10 10 12 1 7 -8 -4 -13 -1 -13 8 0 9 5 16 10 16 6 0 10 6 10 14
0 8 7 16 15 20 9 3 15 -1 15 -11 0 -12 3 -13 14 -4 11 9 16 9 22 0 4 -8 3 -9
-4 -5 -7 4 -12 2 -12 -4 0 -7 6 -10 12 -7 7 2 12 9 11 15 -1 5 8 18 20 28 19
17 20 17 8 1 -8 -9 -12 -20 -9 -23 3 -2 13 11 22 30 9 19 25 38 36 41 11 4 17
11 14 17 -4 6 -2 8 4 4 6 -3 18 1 26 10 9 8 16 12 16 7 0 -4 5 0 11 10 6 9 14
15 18 12 5 -2 7 6 6 18 -3 31 -3 31 -18 18 -8 -6 -17 -7 -21 -3 -4 4 -12 8
-17 8 -5 1 -13 2 -19 3 -5 0 -10 6 -10 12 0 5 4 8 9 4 5 -3 12 -1 15 4 3 4 -4
8 -17 7 -12 0 -26 -7 -30 -13 -4 -7 -18 -13 -30 -14 -12 0 -16 -3 -9 -6 6 -2
10 -9 7 -13 -3 -5 -13 -6 -22 -3 -11 4 -14 3 -9 -5 4 -7 1 -12 -9 -12 -11 0
-15 -5 -12 -14 4 -10 0 -14 -13 -11 -11 2 -19 -1 -17 -8 1 -7 -6 -11 -17 -9
-10 2 -15 -1 -12 -7 4 -5 2 -13 -4 -16 -6 -4 -10 -3 -9 2 4 21 -3 28 -30 28
-16 1 -29 -2 -29 -5 3 -31 -33 -47 -53 -24 -6 8 -16 11 -23 7 -6 -3 -8 -3 -4
1 9 10 -14 36 -25 29 -5 -3 -8 1 -6 8 4 33 -1 42 -15 30 -12 -10 -13 -8 -9 10
4 15 3 20 -5 15 -8 -5 -10 -2 -6 8 3 9 11 13 18 9 6 -3 2 4 -9 17 -13 15 -15
21 -5 16 8 -4 7 -1 -3 7 -18 15 -18 16 0 26 11 7 13 11 4 11 -7 0 -11 6 -7 15
7 18 -10 20 -18 3 -3 -7 -4 1 -3 17 1 19 7 29 15 27 8 -1 11 2 7 8 -3 5 -1 10
4 10 6 0 11 -4 11 -8 0 -5 14 -7 30 -6 17 1 30 -3 30 -8 0 -6 8 -4 17 3 14 12
15 12 9 1 -7 -11 -4 -12 13 -3 16 9 21 9 21 -1 0 -9 3 -9 10 2 5 8 10 11 10 6
0 -6 7 -1 16 10 8 10 13 13 9 7 -3 -7 -1 -13 4 -13 6 0 11 5 11 11 0 6 7 8 16
5 10 -4 13 -2 8 6 -5 8 -2 9 9 5 9 -3 19 -2 22 4 4 5 12 6 18 2 7 -4 6 1 -2
10 -12 15 -12 17 2 12 8 -4 23 2 33 13 11 11 27 18 36 17 20 -4 61 47 50 61
-4 4 2 2 12 -6 13 -10 17 -10 12 -2 -4 7 -2 12 4 12 6 0 8 5 4 12 -5 8 -2 9
11 4 16 -6 16 -4 4 11 -12 15 -12 16 4 10 16 -6 23 8 18 37 -1 5 5 6 13 3 10
-4 13 -1 9 9 -3 7 0 14 7 14 7 0 10 7 6 16 -3 8 -2 13 3 10 4 -3 13 6 20 20 6
14 7 23 2 19 -5 -3 -13 -1 -16 5 -4 6 -3 10 2 9 29 -5 38 10 21 37 -4 6 -1 20
8 30 15 18 15 18 5 -2 -7 -15 -7 -21 3 -21 8 0 12 11 10 29 -2 17 0 27 6 23 7
-4 7 3 0 19 -7 19 -6 26 3 26 8 0 7 4 -3 10 -12 8 -12 10 -1 10 11 0 11 3 0
17 -12 15 -12 16 5 10 16 -7 17 -5 6 9 -12 13 -11 17 1 25 12 8 6 13 -13 10
-3 0 -2 14 3 32 11 39 11 39 2 34 -5 -3 -8 26 -7 64 0 37 -3 66 -8 63 -4 -3
-9 4 -9 15 -3 41 -18 73 -32 64 -6 -4 -7 -1 -2 7 6 10 11 9 22 -5 7 -11 13
-14 13 -7 0 6 -10 18 -22 26 -12 9 -19 16 -14 16 5 0 3 6 -3 14 -9 11 -9 15 1
18 8 3 5 11 -10 23 -12 11 -22 25 -22 33 0 7 -5 10 -12 6 -7 -5 -9 -2 -5 9 3
8 0 18 -7 20 -9 4 -12 -2 -11 -17 2 -14 -3 -23 -11 -23 -10 0 -11 4 -3 13 7 8
7 14 -1 19 -12 7 -11 8 -14 -28 -2 -22 1 -27 13 -22 11 3 10 0 -3 -10 -11 -8
-17 -18 -13 -21 4 -4 -1 -13 -11 -20 -15 -12 -15 -15 -2 -24 11 -7 11 -10 2
-10 -7 0 -10 -4 -7 -10 3 -5 0 -7 -9 -4 -11 4 -14 0 -11 -15 2 -12 0 -19 -6
-16 -5 4 -9 1 -9 -5 0 -6 -5 -8 -10 -5 -6 4 -9 1 -8 -6 2 -7 -4 -13 -12 -14
-8 0 -19 -9 -25 -21 -5 -11 -16 -19 -23 -16 -6 2 -15 -3 -18 -12 -3 -9 -11
-13 -17 -9 -7 4 -8 0 -3 -12 5 -15 4 -16 -9 -5 -11 9 -15 9 -15 1 0 -7 -5 -9
-12 -5 -7 5 -9 2 -5 -8 4 -12 1 -14 -15 -10 -16 4 -19 2 -13 -9 8 -12 6 -12
-8 0 -13 10 -17 10 -17 1 0 -7 -6 -10 -14 -7 -8 3 -17 -1 -20 -9 -4 -11 -11
-12 -32 -4 -25 10 -26 9 -13 -6 13 -16 12 -16 -10 -5 -19 11 -22 11 -16 0 6
-9 3 -11 -8 -6 -10 4 -17 1 -17 -6 0 -8 -3 -8 -9 2 -7 11 -10 9 -16 -9 -6 -18
-9 -20 -16 -9 -5 8 -9 9 -9 3 0 -19 -38 -56 -50 -49 -9 6 -9 2 -1 -13 9 -18 8
-19 -11 -14 -17 4 -20 2 -15 -11 6 -16 -4 -22 -27 -18 -5 1 -13 -4 -17 -11 -7
-10 -9 -9 -9 3 0 9 -10 23 -21 31 -25 16 -34 65 -16 87 10 12 9 13 -1 7 -9 -6
-12 -1 -8 17 5 31 -3 43 -38 57 -19 7 -26 15 -22 25 3 8 0 15 -7 15 -9 0 -9 2
1 8 10 7 7 15 -10 38 -17 22 -18 25 -4 14 19 -15 19 -14 2 19 -10 18 -13 30
-7 27 11 -7 12 -6 16 32 1 12 0 20 -3 17 -3 -2 -12 1 -20 8 -10 8 -13 8 -9 1
4 -7 0 -15 -9 -18 -8 -3 -13 -2 -10 2 3 5 -2 9 -10 9 -9 0 -13 -6 -9 -15 4
-12 2 -12 -8 -4 -8 7 -17 9 -20 5 -4 -3 -7 -1 -7 7 0 10 -3 10 -15 0 -12 -10
-15 -10 -15 0 0 9 -4 9 -17 -1 -11 -10 -14 -10 -9 -1 8 13 -19 13 -41 -1 -8
-5 -13 -3 -13 3 0 6 -5 8 -10 5 -6 -4 -8 -11 -5 -16 3 -5 -1 -6 -9 -3 -9 3
-14 9 -12 13 3 4 -4 7 -14 7 -14 0 -16 -3 -8 -13 8 -10 7 -12 -6 -7 -9 3 -16
10 -16 14 0 5 -6 7 -12 6 -18 -3 -55 -25 -42 -26 5 0 15 5 22 12 9 9 12 9 12
0 0 -6 -8 -16 -17 -21 -10 -6 -14 -11 -10 -11 5 0 1 -7 -8 -17 -12 -12 -19
-13 -24 -5 -4 8 -12 -1 -21 -23 -7 -19 -17 -32 -22 -29 -4 3 -5 -3 -1 -12 5
-13 3 -15 -7 -9 -9 5 -11 4 -6 -4 6 -9 11 -9 21 -1 10 8 14 8 18 -2 2 -7 3 -5
2 4 -4 21 11 33 20 18 5 -8 11 -8 20 0 10 8 15 8 21 -2 12 -19 14 -39 3 -32
-5 3 -9 0 -9 -6 0 -7 -6 -10 -13 -7 -8 3 -14 -1 -14 -8 0 -16 18 -15 29 0 5 7
8 6 8 0 0 -6 15 -10 33 -9 17 1 32 3 32 4 0 1 11 3 25 5 14 2 19 1 13 -1 -7
-3 -13 -10 -13 -15 0 -6 5 -7 10 -4 13 8 13 -5 0 -25 -6 -10 -10 -11 -10 -2 0
6 -4 12 -10 12 -5 0 -7 -7 -3 -15 3 -9 2 -15 -3 -13 -5 2 -9 -1 -9 -7 0 -5 7
-9 15 -7 8 1 4 -5 -10 -13 l-25 -16 25 7 c24 6 24 5 5 -9 -10 -8 -26 -12 -35
-10 -9 4 -7 0 5 -11 19 -15 19 -16 1 -9 -13 4 -17 3 -12 -5 4 -7 2 -12 -4 -12
-6 0 -8 -4 -5 -10 3 -5 -1 -10 -9 -10 -8 0 -19 -8 -24 -17 -6 -9 -17 -18 -26
-19 -9 -1 -13 2 -9 9 4 6 0 8 -10 4 -10 -4 -17 -2 -17 5 0 6 -15 25 -32 41
-18 17 -26 27 -18 23 9 -5 9 -2 -2 7 -10 8 -15 17 -11 20 3 4 2 7 -3 7 -6 0
-15 -5 -22 -12 -9 -9 -12 -8 -12 7 0 17 -2 18 -10 5 -9 -13 -10 -13 -11 0 -1
8 -1 18 -1 21 1 3 -15 4 -34 3 -25 -2 -33 0 -27 9 4 7 0 6 -11 -2 -15 -12 -19
-12 -32 2 -8 9 -9 12 -2 7 7 -6 16 -10 22 -10 5 0 1 6 -10 14 -13 10 -23 11
-31 4 -9 -7 -13 -7 -13 1 0 6 -3 10 -7 10 -20 -3 -34 2 -28 11 3 6 1 10 -4 10
-6 0 -11 -6 -11 -12 -1 -7 -7 -2 -15 12 -8 14 -14 19 -15 13 0 -7 -5 -13 -11
-13 -6 0 -9 7 -6 15 4 8 1 17 -5 21 -7 4 -8 3 -4 -4 4 -7 2 -12 -3 -12 -6 0
-11 5 -11 11 0 5 -4 7 -10 4 -5 -3 -10 -1 -10 5 0 6 -5 8 -12 4 -10 -6 -10 -4
0 8 11 14 10 16 -12 14 -14 -2 -24 2 -23 8 1 6 -4 10 -12 8 -11 -2 -12 0 -3
11 9 10 7 17 -8 30 -11 9 -26 17 -33 17 -8 0 -8 3 -2 8 15 10 13 26 -7 46 -20
19 -24 31 -8 21 6 -3 7 1 4 9 -3 9 -11 16 -18 16 -6 0 -4 5 4 10 13 8 13 10 0
10 -11 0 -11 3 -2 12 14 14 16 32 3 24 -5 -4 -12 0 -14 6 -4 10 -6 10 -6 0z
m937 -137 c-3 -3 -9 2 -12 12 -6 14 -5 15 5 6 7 -7 10 -15 7 -18z m618 -107
c4 -7 3 -8 -4 -4 -7 4 -12 2 -12 -5 0 -7 -3 -10 -6 -6 -6 5 3 27 11 27 2 0 7
-5 11 -12z m-902 -13 c-4 -8 -8 -15 -10 -15 -2 0 -4 7 -4 15 0 8 4 15 10 15 5
0 7 -7 4 -15z m347 -72 c13 -16 12 -17 -3 -4 -10 7 -18 15 -18 17 0 8 8 3 21
-13z m-977 -509 c5 -14 4 -15 -9 -4 -17 14 -19 20 -6 20 5 0 12 -7 15 -16z
m41 -42 c-3 -3 -11 0 -18 7 -9 10 -8 11 6 5 10 -3 15 -9 12 -12z m1526 -25
c-10 -9 -11 -8 -5 6 3 10 9 15 12 12 3 -3 0 -11 -7 -18z m-1426 -45 c-3 -3
-11 0 -18 7 -9 10 -8 11 6 5 10 -3 15 -9 12 -12z m1055 -41 c0 -5 -8 -15 -17
-22 -10 -7 -15 -9 -11 -5 4 5 4 14 -2 20 -6 8 -3 12 11 13 10 1 19 -2 19 -6z
m-550 -160 c0 -3 -7 -15 -15 -25 -8 -10 -12 -23 -8 -29 3 -6 1 -7 -6 -3 -8 5
-10 0 -7 -18 3 -19 1 -23 -11 -19 -13 5 -13 3 -4 -15 9 -17 8 -22 -10 -27 -15
-5 -17 -10 -9 -20 12 -14 -11 -40 -25 -27 -5 4 -5 1 -1 -5 4 -8 2 -13 -6 -13
-10 0 -10 -2 1 -9 9 -6 10 -11 2 -15 -6 -4 -16 -4 -23 0 -6 4 -8 3 -4 -4 3 -6
2 -13 -4 -17 -5 -3 -10 -1 -10 5 0 6 -4 8 -10 5 -5 -3 -10 1 -10 10 0 11 -5
15 -15 11 -9 -3 -18 1 -21 9 -4 8 -10 15 -16 15 -5 0 -6 -5 -2 -12 4 -7 3 -8
-5 -4 -9 6 -9 11 0 22 9 11 8 14 -7 14 -16 0 -17 2 -4 10 10 6 11 10 3 10 -16
0 -17 56 -1 66 6 4 8 3 5 -3 -4 -6 0 -13 7 -16 10 -4 14 0 11 13 -3 13 1 17
11 13 9 -3 14 0 12 7 -2 7 3 15 11 18 9 3 11 0 6 -8 -5 -9 -4 -11 4 -6 6 4 9
11 6 16 -3 5 -1 11 5 15 5 3 10 1 10 -5 0 -6 5 -8 10 -5 6 4 8 10 5 15 -3 5 0
12 6 16 8 5 9 3 4 -6 -5 -8 -3 -11 6 -8 8 3 13 12 11 19 -1 9 3 8 11 -3 16
-20 32 -25 21 -6 -5 8 -2 9 10 5 13 -5 17 -3 13 7 -3 8 -3 16 -1 19 7 6 44 -4
44 -12z m356 10 c-3 -5 4 -11 15 -14 12 -3 18 -10 15 -15 -7 -12 13 -10 32 2
9 5 20 2 30 -10 15 -16 15 -16 1 -6 -13 10 -19 9 -30 -5 -13 -16 -12 -17 3 -5
12 9 18 10 23 2 5 -8 11 -8 17 -2 6 6 18 1 33 -14 14 -14 31 -22 44 -19 12 2
19 0 16 -6 -4 -5 -10 -7 -15 -4 -5 3 -11 2 -14 -3 -3 -5 1 -9 9 -10 8 -1 22
-3 30 -4 8 -1 12 -5 9 -10 -3 -5 -11 -5 -17 -1 -7 4 -6 0 2 -10 7 -9 18 -14
24 -10 6 4 7 1 2 -6 -4 -7 -16 -11 -26 -8 -13 3 -17 1 -12 -6 11 -18 12 -38 2
-31 -5 3 -9 -2 -9 -10 0 -9 -9 -16 -21 -16 -12 0 -17 -4 -13 -11 4 -7 -2 -6
-17 2 -22 11 -23 11 -11 -4 12 -14 11 -16 -9 -12 -12 3 -26 10 -30 16 -4 6
-11 9 -17 5 -6 -4 -8 2 -4 16 3 14 1 19 -6 14 -6 -3 -14 -1 -18 5 -4 7 -3 9 4
5 6 -3 13 -2 17 4 3 5 1 10 -5 10 -6 0 -8 4 -5 10 3 6 -1 7 -10 4 -9 -4 -15
-3 -13 2 2 5 -4 24 -11 42 -12 29 -12 35 0 43 8 5 9 9 4 9 -6 0 -15 -4 -20 -9
-6 -6 -11 -1 -11 14 -1 14 2 22 7 19 5 -3 9 -1 9 5 0 5 -10 13 -22 17 -22 7
-22 7 -3 15 27 10 27 10 21 0z m640 -44 c4 -4 14 -1 22 6 13 10 14 9 2 -12
-11 -21 -14 -22 -21 -8 -6 10 -18 14 -37 11 -18 -3 -23 -2 -13 5 15 10 36 9
47 -2z m-1312 -75 c3 -5 -1 -9 -9 -9 -8 0 -12 4 -9 9 3 4 7 8 9 8 2 0 6 -4 9
-8z m-207 -84 c-3 -8 -6 -5 -6 6 -1 11 2 17 5 13 3 -3 4 -12 1 -19z"/>
<path d="M124 1736 c1 -8 5 -18 8 -22 4 -3 5 1 4 10 -1 8 -5 18 -8 22 -4 3 -5
-1 -4 -10z"/>
<path d="M766 1577 c3 -10 9 -15 12 -12 3 3 0 11 -7 18 -10 9 -11 8 -5 -6z"/>
<path d="M795 1579 c-10 -15 3 -25 16 -12 7 7 7 13 1 17 -6 3 -14 1 -17 -5z"/>
<path d="M1510 1491 c0 -6 4 -13 10 -16 6 -3 7 1 4 9 -7 18 -14 21 -14 7z"/>
<path d="M1220 1411 c0 -6 4 -13 10 -16 6 -3 7 1 4 9 -7 18 -14 21 -14 7z"/>
<path d="M1228 1368 c5 -5 16 -8 23 -6 8 3 3 7 -10 11 -17 4 -21 3 -13 -5z"/>
<path d="M615 691 c-3 -5 -2 -12 3 -15 5 -3 9 1 9 9 0 17 -3 19 -12 6z"/>
<path d="M660 326 c0 -2 7 -7 16 -10 8 -3 12 -2 9 4 -6 10 -25 14 -25 6z"/>
<path d="M1290 206 c0 -2 7 -7 16 -10 8 -3 12 -2 9 4 -6 10 -25 14 -25 6z"/>
</g>
</svg>
